<?xml version="1.0" encoding="UTF-8" standalone="no"?>
<!-- Created with Inkscape (http://www.inkscape.org/) -->
<svg
   xmlns:dc="http://purl.org/dc/elements/1.1/"
   xmlns:cc="http://creativecommons.org/ns#"
   xmlns:rdf="http://www.w3.org/1999/02/22-rdf-syntax-ns#"
   xmlns:svg="http://www.w3.org/2000/svg"
   xmlns="http://www.w3.org/2000/svg"
   xmlns:xlink="http://www.w3.org/1999/xlink"
   xmlns:sodipodi="http://sodipodi.sourceforge.net/DTD/sodipodi-0.dtd"
   xmlns:inkscape="http://www.inkscape.org/namespaces/inkscape"
   width="160"
   height="214.27202"
   id="svg2"
   sodipodi:version="0.32"
   inkscape:version="0.46"
   version="1.0"
   sodipodi:docname="original-git-logo.svg"
   inkscape:output_extension="org.inkscape.output.svg.inkscape">
  <defs
     id="defs4">
    <inkscape:perspective
       sodipodi:type="inkscape:persp3d"
       inkscape:vp_x="0 : 526.18109 : 1"
       inkscape:vp_y="0 : 1000 : 0"
       inkscape:vp_z="744.09448 : 526.18109 : 1"
       inkscape:persp3d-origin="372.04724 : 350.78739 : 1"
       id="perspective10" />
  </defs>
  <sodipodi:namedview
     id="base"
     pagecolor="#ffffff"
     bordercolor="#666666"
     borderopacity="1.0"
     gridtolerance="10000"
     guidetolerance="10"
     objecttolerance="10"
     inkscape:pageopacity="0.0"
     inkscape:pageshadow="2"
     inkscape:zoom="17.783544"
     inkscape:cx="10.412188"
     inkscape:cy="13.102"
     inkscape:document-units="px"
     inkscape:current-layer="layer1"
     showgrid="false"
     inkscape:window-width="838"
     inkscape:window-height="654"
     inkscape:window-x="436"
     inkscape:window-y="70" />
  <metadata
     id="metadata7">
    <rdf:RDF>
      <cc:Work
         rdf:about="">
        <dc:format>image/svg+xml</dc:format>
        <dc:type
           rdf:resource="http://purl.org/dc/dcmitype/StillImage" />
      </cc:Work>
    </rdf:RDF>
  </metadata>
  <g
     inkscape:label="Layer 1"
     inkscape:groupmode="layer"
     id="layer1"
     transform="translate(60.70981,-926.54618)">
    <path
       style="font-size:11px;font-style:normal;font-variant:normal;font-weight:normal;font-stretch:normal;fill:#ff0000;fill-opacity:1;stroke:none;stroke-width:1px;stroke-linecap:butt;stroke-linejoin:miter;stroke-opacity:1;font-family:Courier 10 Pitch;-inkscape-font-specification:Courier 10 Pitch"
       d="M -56.21102,935.45005 L -18.252464,935.45005 C -17.127766,935.45005 -16.096793,934.41907 -16.096793,933.29437 L -16.096793,928.42068 C -16.096793,927.29598 -16.846591,926.54618 -18.252464,926.54618 L -56.21102,926.54618 C -57.42944,926.54618 -58.17924,927.29598 -58.17924,928.42068 L -58.17924,933.29437 C -58.17924,934.60652 -57.42944,935.45005 -56.21102,935.45005 M 0.1703275,935.45005 L 38.128884,935.45005 C 39.253573,935.45005 40.284555,934.41907 40.284555,933.29437 L 40.284555,928.42068 C 40.284555,927.29598 39.534747,926.54618 38.128884,926.54618 L 0.1703275,926.54618 C -1.048095,926.54618 -1.797902,927.29598 -1.797902,928.42068 L -1.797902,933.29437 C -1.797902,934.60652 -1.048095,935.45005 0.1703275,935.45005 M 56.551666,935.45005 L 94.51022,935.45005 C 95.63492,935.45005 96.665895,934.41907 96.665895,933.29437 L 96.665895,928.42068 C 96.665895,927.29598 95.916095,926.54618 94.51022,926.54618 L 56.551666,926.54618 C 55.333243,926.54618 54.583445,927.29598 54.583445,928.42068 L 54.583445,933.29437 C 54.583445,934.60652 55.333243,935.45005 56.551666,935.45005"
       id="flowRoot2411" />
    <path
       style="font-size:11px;font-style:normal;font-variant:normal;font-weight:normal;font-stretch:normal;fill:#00ff00;fill-opacity:1;stroke:none;stroke-width:1px;stroke-linecap:butt;stroke-linejoin:miter;stroke-opacity:1;font-family:Courier 10 Pitch;-inkscape-font-specification:Courier 10 Pitch"
       d="M -17.127766,1005.1898 L -33.717061,1005.1898 L -33.717061,987.94447 C -33.717061,985.78879 -35.029208,984.2892 -37.091154,984.2892 C -39.153101,984.2892 -40.558975,985.78879 -40.558975,987.94447 L -40.558975,1005.1898 L -57.054545,1005.1898 C -59.022765,1005.1898 -60.70981,1006.6894 -60.70981,1008.5639 C -60.70981,1010.5322 -59.210215,1011.8443 -57.054545,1011.8443 L -40.558975,1011.8443 L -40.558975,1028.9959 C -40.558975,1030.9641 -38.965651,1032.6512 -37.091154,1032.6512 C -35.029208,1032.6512 -33.717061,1031.1516 -33.717061,1028.9959 L -33.717061,1011.8443 L -17.127766,1011.8443 C -14.972095,1011.8443 -13.472497,1010.5322 -13.472497,1008.5639 C -13.472497,1006.502 -14.972095,1005.1898 -17.127766,1005.1898 M 39.253573,1005.1898 L 22.664278,1005.1898 L 22.664278,987.94447 C 22.664278,985.78879 21.35213,984.2892 19.290184,984.2892 C 17.228247,984.2892 15.822366,985.78879 15.822366,987.94447 L 15.822366,1005.1898 L -0.673204,1005.1898 C -2.641417,1005.1898 -4.328464,1006.6894 -4.328464,1008.5639 C -4.328464,1010.5322 -2.828867,1011.8443 -0.673204,1011.8443 L 15.822366,1011.8443 L 15.822366,1028.9959 C 15.822366,1030.9641 17.415696,1032.6512 19.290184,1032.6512 C 21.35213,1032.6512 22.664278,1031.1516 22.664278,1028.9959 L 22.664278,1011.8443 L 39.253573,1011.8443 C 41.409244,1011.8443 42.908842,1010.5322 42.908842,1008.5639 C 42.908842,1006.502 41.409244,1005.1898 39.253573,1005.1898 M 95.63492,1005.1898 L 79.045625,1005.1898 L 79.045625,987.94447 C 79.045625,985.78879 77.73348,984.2892 75.67153,984.2892 C 73.609585,984.2892 72.203715,985.78879 72.203715,987.94447 L 72.203715,1005.1898 L 55.708143,1005.1898 C 53.739922,1005.1898 52.052874,1006.6894 52.052874,1008.5639 C 52.052874,1010.5322 53.552472,1011.8443 55.708143,1011.8443 L 72.203715,1011.8443 L 72.203715,1028.9959 C 72.203715,1030.9641 73.797035,1032.6512 75.67153,1032.6512 C 77.73348,1032.6512 79.045625,1031.1516 79.045625,1028.9959 L 79.045625,1011.8443 L 95.63492,1011.8443 C 97.79059,1011.8443 99.29019,1010.5322 99.29019,1008.5639 C 99.29019,1006.502 97.79059,1005.1898 95.63492,1005.1898"
       id="flowRoot2419" />
    <path
       style="font-size:11px;font-style:normal;font-variant:normal;font-weight:normal;font-stretch:normal;fill:#000000;fill-opacity:1;stroke:none;stroke-width:1px;stroke-linecap:butt;stroke-linejoin:miter;stroke-opacity:1;font-family:Courier 10 Pitch;-inkscape-font-specification:Courier 10 Pitch"
       d="M -18.533638,1120.105 L -18.533638,1086.7389 C -18.252464,1086.7389 -17.971289,1086.7389 -17.690115,1086.7389 C -13.847397,1086.7389 -12.254075,1086.0829 -12.254075,1083.4586 C -12.254075,1081.3029 -13.472497,1080.2719 -15.909343,1080.2719 L -22.84498,1080.2719 C -24.625752,1080.2719 -25.469276,1080.8343 -25.469276,1082.1464 L -25.469276,1085.4268 C -29.874333,1081.959 -34.279418,1080.1782 -38.965651,1080.1782 C -50.02517,1080.1782 -59.11649,1088.5197 -59.11649,1100.329 C -59.11649,1112.3258 -50.681245,1120.6673 -39.34055,1120.6673 C -33.435895,1120.6673 -29.124544,1118.6991 -25.375551,1114.3878 L -25.375551,1119.9175 C -25.375551,1129.3837 -28.281029,1133.6951 -37.840953,1133.6951 C -40.277799,1133.6951 -42.80837,1133.039 -45.52639,1133.039 C -47.68206,1133.039 -49.46283,1134.7261 -49.46283,1136.6005 C -49.46283,1139.5997 -46.182455,1140.8182 -39.434275,1140.8182 C -30.905324,1140.8182 -24.719476,1138.2876 -21.345383,1133.8825 C -18.627363,1130.321 -18.533638,1126.2908 -18.533638,1121.136 C -18.533638,1120.7611 -18.533638,1120.4799 -18.533638,1120.105 M -38.403302,1087.0201 C -30.342975,1087.0201 -24.813202,1092.6436 -24.813202,1100.329 C -24.813202,1108.1082 -30.4367,1113.638 -38.403302,1113.638 C -46.46363,1113.638 -51.9934,1108.0145 -51.9934,1100.329 C -51.9934,1092.4562 -46.369905,1087.0201 -38.403302,1087.0201 M 23.507802,1116.0748 L 23.507802,1082.1464 C 23.507802,1081.0217 22.664278,1080.2719 20.883515,1080.2719 L 7.4808559,1080.2719 C 5.0440189,1080.2719 3.8255875,1081.3029 3.8255875,1083.4586 C 3.8255875,1085.6142 5.1377437,1086.7389 7.6683141,1086.7389 L 16.572173,1086.7389 L 16.572173,1116.0748 L 2.607165,1116.0748 C 0.076603,1116.0748 -1.2355445,1117.1058 -1.2355445,1119.2615 C -1.2355445,1121.4171 -0.017122,1122.5418 2.4197235,1122.5418 L 37.941434,1122.5418 C 40.659445,1122.5418 41.690419,1121.8858 41.690419,1119.2615 C 41.690419,1117.0121 40.565721,1116.0748 38.222608,1116.0748 L 23.507802,1116.0748 M 14.978851,1067.0567 C 14.978851,1070.8057 15.916099,1071.5555 19.758808,1071.5555 C 24.163875,1071.5555 24.44505,1070.5245 24.44505,1065.7446 C 24.44505,1060.9646 23.976426,1059.5587 19.758808,1059.5587 C 15.5412,1059.5587 14.978851,1060.9646 14.978851,1067.0567 M 88.136935,1082.8025 L 70.141765,1082.8025 L 70.141765,1073.5237 C 70.141765,1069.025 69.766865,1067.1504 66.4865,1067.1504 C 64.049655,1067.1504 62.924955,1068.4626 62.924955,1070.9932 C 62.924955,1072.2116 62.924955,1073.0551 62.924955,1073.43 L 62.924955,1082.8025 L 57.863814,1082.8025 C 53.458755,1082.8025 51.58425,1083.0837 51.58425,1086.0829 C 51.58425,1088.3323 52.708948,1089.2695 55.239519,1089.2695 L 62.924955,1089.2695 L 62.924955,1104.5467 C 62.924955,1105.0153 62.924955,1105.4839 62.924955,1105.9525 C 62.924955,1110.1701 63.01868,1113.8254 64.612,1116.5434 C 67.236295,1121.1359 72.109995,1123.3853 79.13935,1123.3853 C 83.450685,1123.3853 88.230665,1122.1669 93.947875,1119.9175 C 97.321965,1118.6054 99.009015,1117.2932 99.009015,1115.1376 C 99.009015,1113.4505 97.509415,1111.8572 95.82237,1111.8572 C 92.1671,1111.8572 86.07498,1116.7309 78.670725,1116.7309 C 70.6104,1116.7309 70.04804,1111.8572 70.04804,1104.5467 L 70.04804,1089.2695 L 88.60556,1089.2695 C 91.13613,1089.2695 92.448275,1088.2385 92.448275,1086.0829 C 92.448275,1083.7397 91.042405,1082.8025 88.136935,1082.8025"
       id="flowRoot2427" />
    <use
       x="0"
       y="0"
       xlink:href="#flowRoot2411"
       id="use2382"
       width="320"
       height="428.54401" />
    <use
       x="0"
       y="0"
       xlink:href="#flowRoot2419"
       id="use2384"
       width="320"
       height="428.54401" />
    <use
       x="0"
       y="0"
       xlink:href="#flowRoot2427"
       id="use2386"
       width="320"
       height="428.54401" />
  </g>
</svg>
